<svg width="24" height="24" viewBox="0 0 24 24" fill="none" xmlns="http://www.w3.org/2000/svg">
<path d="M16.3496 12.0068C16.3496 12.1507 16.3219 12.2835 16.2666 12.4053C16.2113 12.527 16.1255 12.646 16.0093 12.7622L11.0371 17.6846C10.8545 17.8672 10.6331 17.9585 10.373 17.9585C10.1019 17.9585 9.87223 17.8672 9.68408 17.6846C9.49593 17.4964 9.40186 17.2695 9.40186 17.0039C9.40186 16.7383 9.50423 16.5031 9.70898 16.2983L14.0669 12.0068L9.70898 7.71533C9.50423 7.51058 9.40186 7.27539 9.40186 7.00977C9.40186 6.74414 9.49593 6.52002 9.68408 6.3374C9.87223 6.14925 10.1019 6.05518 10.373 6.05518C10.6331 6.05518 10.8545 6.14648 11.0371 6.3291L16.0093 11.2515C16.2362 11.4673 16.3496 11.7191 16.3496 12.0068Z" fill="#3C3C43"/>
</svg>
